HIERARCHY
ROOT Hips
{
 OFFSET 0.000000 0.000000 0.000000
 CHANNELS 6 Xposition Yposition Zposition Yrotation Xrotation Zrotation
 JOINT Chest
 {
  OFFSET 0.000000 9.588913 -0.003946
  CHANNELS 3 Yrotation Xrotation Zrotation
  JOINT Chest2
  {
   OFFSET 0.000000 9.541882 0.008053
   CHANNELS 3 Yrotation Xrotation Zrotation
   JOINT Chest3
   {
    OFFSET 0.000000 9.501360 0.000000
    CHANNELS 3 Yrotation Xrotation Zrotation
    JOINT Chest4
    {
     OFFSET 0.000000 9.491660 0.000000
     CHANNELS 3 Yrotation Xrotation Zrotation
     JOINT Neck
     {
      OFFSET 0.000000 14.331917 0.000000
      CHANNELS 3 Yrotation Xrotation Zrotation
      JOINT Head
      {
       OFFSET 0.000000 8.884799 0.017034
       CHANNELS 3 Yrotation Xrotation Zrotation
       End Site
       {
        OFFSET 0.000000 16.896195 0.008993
       }
      }
     }
     JOINT RightCollar
     {
      OFFSET -2.923010 9.499495 0.000000
      CHANNELS 3 Yrotation Xrotation Zrotation
      JOINT RightShoulder
      {
       OFFSET -13.795216 0.000000 0.000000
       CHANNELS 3 Yrotation Xrotation Zrotation
       JOINT RightElbow
       {
        OFFSET -30.272209 0.000000 0.000000
        CHANNELS 3 Yrotation Xrotation Zrotation
        JOINT RightWrist
        {
         OFFSET -24.478199 0.000000 0.000000
         CHANNELS 3 Yrotation Xrotation Zrotation
         End Site
         {
          OFFSET -18.090752 0.000000 0.000000
         }
        }
       }
      }
     }
     JOINT LeftCollar
     {
      OFFSET 2.923010 9.499495 0.000000
      CHANNELS 3 Yrotation Xrotation Zrotation
      JOINT LeftShoulder
      {
       OFFSET 13.795216 0.000000 0.000000
       CHANNELS 3 Yrotation Xrotation Zrotation
       JOINT LeftElbow
       {
        OFFSET 30.272209 0.000000 0.000000
        CHANNELS 3 Yrotation Xrotation Zrotation
        JOINT LeftWrist
        {
         OFFSET 24.478199 0.000000 0.000000
         CHANNELS 3 Yrotation Xrotation Zrotation
         End Site
         {
          OFFSET 18.090752 0.000000 0.000000
         }
        }
       }
      }
     }
    }
   }
  }
 }
 JOINT RightHip
 {
  OFFSET -7.826875 0.019532 0.001973
  CHANNELS 3 Yrotation Xrotation Zrotation
  JOINT RightKnee
  {
   OFFSET 0.000000 -40.546152 -0.001885
   CHANNELS 3 Yrotation Xrotation Zrotation
   JOINT RightAnkle
   {
    OFFSET 0.000000 -39.417092 -0.003189
    CHANNELS 3 Yrotation Xrotation Zrotation
    JOINT RightToe
    {
     OFFSET 0.000000 -7.579396 17.243563
     CHANNELS 3 Yrotation Xrotation Zrotation
     End Site
     {
      OFFSET 0.000000 -1.500329 6.694466
     }
    }
   }
  }
 }
 JOINT LeftHip
 {
  OFFSET 7.826875 0.019532 0.001973
  CHANNELS 3 Yrotation Xrotation Zrotation
  JOINT LeftKnee
  {
   OFFSET 0.000000 -40.546152 -0.001885
   CHANNELS 3 Yrotation Xrotation Zrotation
   JOINT LeftAnkle
   {
    OFFSET 0.000000 -39.417092 -0.003189
    CHANNELS 3 Yrotation Xrotation Zrotation
    JOINT LeftToe
    {
     OFFSET 0.000000 -7.579396 17.243563
     CHANNELS 3 Yrotation Xrotation Zrotation
     End Site
     {
      OFFSET 0.000000 -1.500329 6.694466
     }
    }
   }
  }
 }
}
MOTION
Frames: 8
Frame Time: 0.008333
0.000000 87.345680 0.000000 0.000000 -5.767889 0.000000 0.000000 11.653876 0.000000 0.000000 -5.885988 0.000000 0.000000 -0.000000 0.000000 0.000000 -0.000000 0.000000 0.000000 12.528808 0.000000 0.000000 0.711711 0.000000 0.000000 -0.000000 0.000000 0.000000 -0.000000 0.000000 2.309063 -0.000000 0.000000 -2.309063 -0.000000 -0.000000 0.000000 -0.000000 0.000000 0.000000 0.000000 0.000000 -2.309063 0.000000 0.000000 2.309063 -0.000000 0.000000 0.000000 8.520374 0.000000 0.000000 1.905768 0.000000 -0.000000 -4.658254 0.000000 0.000000 -0.000000 0.000000 0.000000 8.520374 0.000000 0.000000 1.905768 0.000000 -0.000000 -4.658254 0.000000 0.000000 -0.000000 0.000000
0.978359 89.139363 -14.901295 137.334269 -4.984794 0.684575 -7.439263 1.874028 0.540314 -4.160045 1.062736 0.316324 -5.199360 1.331789 0.383299 -4.160045 1.062738 0.316324 7.225550 24.549066 -3.759186 8.889416 1.388086 -5.834274 17.404972 -0.679003 -1.400662 -8.954764 2.090332 89.255825 18.184257 9.421367 4.879691 4.405988 0.046421 -2.336885 11.904564 0.129735 -1.856916 0.965758 0.545496 -89.252843 -14.956716 25.232213 -2.033199 0.466308 3.201755 -1.396572 -11.182922 7.485890 -3.209688 -1.290987 0.776741 -1.103309 -2.840757 -3.265181 2.859250 0.012461 0.115683 0.026828 -1.445546 9.785483 1.274502 0.339686 0.065726 0.918613 4.886997 -4.204243 -1.761128 -0.071599 -0.180817 -0.024729
0.983763 89.139091 -14.891749 137.393030 -4.950729 0.690001 -7.384600 1.890989 0.535628 -4.128916 1.072054 0.313318 -5.160452 1.343378 0.379528 -4.128917 1.072056 0.313318 7.148805 24.539271 -3.705576 8.787387 1.363183 -5.754720 17.348517 -0.714825 -1.419550 -8.852600 2.185286 89.267216 17.537033 9.383530 4.732312 4.396068 0.029192 -2.331131 11.930936 0.153853 -1.824041 1.040758 0.606712 -89.369141 -14.230162 25.079251 -1.810327 0.342327 3.143763 -1.235463 -11.189562 7.490930 -3.197498 -1.330166 0.730056 -1.102811 -2.855811 -3.260077 2.847826 0.010205 0.119342 0.024445 -1.394427 9.727813 1.293890 0.301840 0.069442 0.910435 4.800570 -4.189083 -1.760738 -0.069951 -0.176005 -0.025928
0.991083 89.138860 -14.881171 137.448410 -4.915178 0.694563 -7.331131 1.906625 0.530050 -4.099006 1.080601 0.309974 -5.123069 1.354001 0.375342 -4.099007 1.080604 0.309974 7.073408 24.528774 -3.649834 8.686466 1.337531 -5.673180 17.297107 -0.750226 -1.440791 -8.750138 2.275574 89.280817 16.916251 9.368142 4.593313 4.376444 0.006868 -2.329605 11.953198 0.177022 -1.788596 1.111059 0.646526 -89.465481 -13.506132 24.909741 -1.607881 0.222622 3.088552 -1.092475 -11.202162 7.498557 -3.185448 -1.368938 0.678144 -1.099570 -2.859671 -3.253841 2.835803 0.007753 0.122516 0.020777 -1.349781 9.665742 1.311759 0.264102 0.077934 0.903118 4.731702 -4.174778 -1.760662 -0.068511 -0.171776 -0.027064
1.000120 89.138731 -14.870472 137.501650 -4.881913 0.700016 -7.279675 1.922215 0.523533 -4.070826 1.089025 0.305924 -5.087851 1.364463 0.370270 -4.070827 1.089027 0.305924 7.000269 24.517007 -3.593115 8.587978 1.310621 -5.591180 17.255179 -0.783415 -1.466397 -8.656398 2.356398 89.299460 16.314618 9.380295 4.457325 4.347916 -0.011742 -2.330531 11.969497 0.196324 -1.752283 1.176504 0.670337 -89.542701 -12.790096 24.723671 -1.423415 0.114862 3.044225 -0.970248 -11.225472 7.509836 -3.175939 -1.399300 0.625148 -1.094728 -2.860689 -3.248737 2.823908 0.005780 0.125610 0.016243 -1.314131 9.602898 1.325320 0.224476 0.092522 0.894905 4.689362 -4.161448 -1.759204 -0.066222 -0.168529 -0.027948
1.010958 89.138783 -14.860513 137.551866 -4.856362 0.707211 -7.231044 1.939815 0.515714 -4.044414 1.098776 0.300999 -5.054845 1.376576 0.364087 -4.044414 1.098778 0.300999 6.929881 24.503684 -3.536366 8.492713 1.282224 -5.509900 17.218792 -0.817111 -1.494413 -8.562614 2.425419 89.322225 15.728171 9.416504 4.318784 4.309981 -0.023861 -2.331157 11.988676 0.212680 -1.716076 1.229436 0.680614 -89.605964 -12.083656 24.525987 -1.244415 0.023112 3.015061 -0.872835 -11.257758 7.529172 -3.170862 -1.418184 0.572533 -1.087711 -2.865336 -3.245109 2.810905 0.004050 0.128546 0.011872 -1.286784 9.547152 1.336165 0.188691 0.110421 0.884725 4.658160 -4.148098 -1.757310 -0.063295 -0.166821 -0.028308
1.023625 89.139039 -14.851394 137.599394 -4.840955 0.714836 -7.186480 1.959092 0.506562 -4.020257 1.109852 0.295402 -5.024660 1.390340 0.357043 -4.020257 1.109854 0.295401 6.863039 24.490960 -3.480871 8.401940 1.255172 -5.430989 17.185703 -0.852301 -1.522221 -8.465126 2.485710 89.346217 15.159548 9.473296 4.179552 4.254819 -0.031449 -2.331203 12.012570 0.232249 -1.678603 1.269250 0.677778 -89.659887 -11.386293 24.326216 -1.059860 -0.051129 3.001742 -0.801175 -11.296617 7.559778 -3.168207 -1.426928 0.518721 -1.080310 -2.874800 -3.241082 2.796589 0.002397 0.130768 0.008481 -1.270226 9.502618 1.345660 0.162675 0.129522 0.875590 4.625859 -4.134802 -1.758070 -0.060734 -0.166130 -0.028006
1.037661 89.139459 -14.842631 137.643732 -4.833847 0.722162 -7.146284 1.978919 0.496752 -3.998551 1.121581 0.289252 -4.997541 1.404916 0.349295 -3.998552 1.121582 0.289252 6.802061 24.480357 -3.428617 8.318822 1.231723 -5.357247 17.154021 -0.889664 -1.548977 -8.368701 2.540911 89.367193 14.609856 9.553342 4.045356 4.179198 -0.037500 -2.330627 12.034514 0.255553 -1.639184 1.301156 0.665884 -89.709759 -10.701249 24.129614 -0.863466 -0.107842 2.996560 -0.752509 -11.337728 7.599273 -3.166145 -1.429027 0.464182 -1.075371 -2.883086 -3.236296 2.782229 0.001777 0.132231 0.006710 -1.269607 9.466996 1.351057 0.146947 0.150799 0.871624 4.600409 -4.122522 -1.763432 -0.058719 -0.165712 -0.027030
